<?xml version="1.0" encoding="utf-8"?>
<!-- Generator: Adobe Illustrator 27.3.1, SVG Export Plug-In . SVG Version: 6.00 Build 0)  -->
<svg version="1.1" id="Layer_1" xmlns="http://www.w3.org/2000/svg" xmlns:xlink="http://www.w3.org/1999/xlink" x="0px" y="0px"
	 viewBox="0 0 1000 1000" style="enable-background:new 0 0 1000 1000;" xml:space="preserve">
<style type="text/css">
	.st0{clip-path:url(#SVGID_00000038412563969579488960000005824972974794744756_);}
	.st1{fill:#761113;}
	.st2{fill:#fbcd0e;}
	.st3{fill:#222021;}
</style>
<g>
	<g>
		<defs>
			<rect id="SVGID_1_" x="204.4" y="123.3" width="591.3" height="579.7"/>
		</defs>
		<clipPath id="SVGID_00000127727541092792155570000004030094079359953051_">
			<use xlink:href="#SVGID_1_"  style="overflow:visible;"/>
		</clipPath>
		<g style="clip-path:url(#SVGID_00000127727541092792155570000004030094079359953051_);">
			<path class="st1" d="M418,627.3L418,627.3l-0.1,54.2h0.1V627.3z"/>
			<path class="st1" d="M389.7,440.6l0,6.5L389.7,440.6L389.7,440.6z"/>
			<path class="st1" d="M667.7,386.2v6.5V386.2L667.7,386.2z"/>
			<path class="st1" d="M335.2,301.8l0,6.5L335.2,301.8L335.2,301.8z"/>
			<path class="st2" d="M667.7,308.3l-167,165.5l-0.5-0.5l0,0L363.5,336.7v278.5l-28.4-23.4V308.3l0-6.5l0.2-33.4l166,166l166-166
				L667.7,308.3z"/>
			<path class="st3" d="M795.6,419c-0.1,63.6-20.6,125.5-58.6,176.5c-38,51-91.3,88.5-152.2,106.8V516.7l28.3-27.3v177.1
				c56.6-25.9,102.7-70.4,130.5-126.2c27.8-55.7,35.6-119.3,22.2-180.1c-13.4-60.8-47.3-115.2-96-154.1
				c-48.7-38.9-109.2-59.9-171.4-59.5c-62.3,0.4-122.5,22.1-170.8,61.5c-48.2,39.4-81.5,94.2-94.2,155.1
				c-12.7,61-4.2,124.5,24.2,179.9c28.4,55.4,75,99.4,131.9,124.7V440.6v-33.4l111.6,111.6l166-166v33.5v203.7l-28.4,27.3V420.7
				L500.7,558.2l-0.9-0.9l-18.4-18.6L418,475.3v151.9V703c-52.8-15.2-100.3-44.9-137.1-85.6c-36.9-40.7-61.7-90.9-71.6-145
				c-9.9-54-4.6-109.8,15.4-161c20-51.2,53.8-95.8,97.7-128.8c43.9-33,96.2-53.2,150.9-58.1c54.7-5,109.7,5.4,158.9,29.9
				c49.2,24.5,90.5,62.3,119.4,109C780.3,310.2,795.7,364,795.6,419z"/>
			<path class="st1" d="M418,627.3L418,627.3l-0.1,54.2h0.1V627.3z"/>
		</g>
	</g>
	<path class="st3" d="M120.6,801.2h0.9v74.3h-11.4v-40.3l-24.1,39.1h-0.1l-24.2-39.1v40.4H50.2v-74.3h0.9L85.9,854L120.6,801.2z
		 M169.5,876.6c-20.7,0-37.5-16.9-37.5-37.4c0-20.7,16.9-37.7,37.6-37.7c20.7,0,37.6,17,37.6,37.7
		C207.2,859.7,190.2,876.6,169.5,876.6z M169.5,865.1c14.3,0,26.1-11.7,26.1-26c0-14.4-11.8-26.1-26.1-26.1c-14.3,0-26,11.7-26,26.1
		C143.5,853.4,155.2,865.1,169.5,865.1z M238.4,802.7c23.1,0,37.5,13.9,37.5,36.4c0,22.3-14.4,36.3-37.5,36.3h-20.7v-72.7H238.4z
		 M238.4,864.1c15.9,0,25.8-9.6,25.8-24.9c0-15.4-10-25.1-26-25.1H229v50H238.4z M329.6,814h-31.9v18.6h27.5V844h-27.5v20.1h31.9
		v11.4h-43.3v-72.7h43.3V814z M395.5,875.4h-14l-19.6-28.1H353v28.1h-11.4l0-72.7h22.6c13.5,0,24.6,10.4,24.6,23.4
		c0,9.4-6,17.5-14.4,20.2L395.5,875.4z M352.9,837.8h11.5c6.9,0,12.6-5.5,12.6-12c0-6.8-5.8-11.8-12.6-11.8h-11.5V837.8z
		 M450.2,802.5h11.5v74.1h-0.5l-46.5-48.6v47.4h-11.4v-74.1h0.6l46.4,48.5V802.5z M511.6,867.3h35.6v8.2h-43.8v-72.7h8.2V867.3z
		 M557.2,875.4v-72.7h8.2v72.7H557.2z M648.7,836.9c0.1,1.2,0.3,3.1,0.3,5.2c0,20.4-15.7,34.3-34.5,34.3
		c-20.9,0-37.7-16.8-37.7-37.3c0-20.5,16.8-37.4,37.3-37.4c8.9,0,19.8,4.6,26.3,10.9l-4.6,6.8c-5.6-5.6-14.5-9.5-21.8-9.5
		c-15.3,0-29,12.7-29,29.2c0,16,12.9,29,29.6,29c14.2,0,25.4-9.5,25.4-22.4c0-0.5,0-1,0-1.4h-26.1v-7.4H648.7z M705.6,802.7h8.2
		v72.7h-8.2v-32.3h-36.8v32.3h-8.2v-72.7h8.2V835h36.8V802.7z M774.2,802.7v8.1h-21.1v64.6h-8.2v-64.6h-21.2v-8.1H774.2z
		 M784.1,875.4v-72.7h8.2v72.7H784.1z M857.9,802.5h8.2v74h-0.4l-49.8-55.3v54.3h-8.2v-73.9h0.5l49.8,55.3V802.5z M949.4,836.9
		c0.1,1.2,0.3,3.1,0.3,5.2c0,20.4-15.7,34.3-34.5,34.3c-20.9,0-37.7-16.8-37.7-37.3c0-20.5,16.8-37.4,37.3-37.4
		c8.9,0,19.8,4.6,26.3,10.9l-4.6,6.8c-5.6-5.6-14.5-9.5-21.8-9.5c-15.3,0-29,12.7-29,29.2c0,16,12.9,29,29.6,29
		c14.2,0,25.4-9.5,25.4-22.4c0-0.5,0-1,0-1.4h-26.1v-7.4H949.4z"/>
</g>
</svg>
