<svg xmlns="http://www.w3.org/2000/svg" fill="none" viewBox="-0.5 -0.5 24 24"
    id="Design-Services--Streamline-Sharp-Material-Icons" height="24" width="24">
    <desc>Design Services Streamline Icon: https://streamlinehq.com</desc>
    <path fill="#f8ef2d"
        d="m8.553125000000001 10.709375000000001 2.15625 -2.15625 -1.796875 -1.796875 -1.15 1.15 -1.00625 -1.00625 1.15 -1.15 -1.796875 -1.772916666666667 -2.15625 2.15625 4.6 4.576041666666667Zm8.289583333333335 8.3375 2.15625 -2.1802083333333333 -1.796875 -1.796875 -1.15 1.15 -1.00625 -1.00625 1.15 -1.15 -1.772916666666667 -1.772916666666667 -2.15625 2.15625 4.576041666666667 4.6ZM6.612500000000001 20.125H2.875v-3.7375000000000003l4.647916666666666 -4.647916666666666L1.9166666666666667 6.133333333333334 6.085416666666666 1.9166666666666667l5.654166666666667 5.630208333333334 5.270833333333334 -5.270833333333334 3.713541666666667 3.713541666666667 -5.270833333333334 5.270833333333334L21.083333333333336 16.890625l-4.192708333333334 4.16875 -5.60625 -5.60625L6.612500000000001 20.125ZM4.3125 18.6875h1.6770833333333335l9.415625 -9.439583333333333 -1.6770833333333335 -1.6770833333333335L4.3125 17.010416666666668V18.6875Zm10.254166666666666 -10.278125 -0.8385416666666667 -0.8385416666666667 1.6770833333333335 1.6770833333333335 -0.8385416666666667 -0.8385416666666667Z"
        stroke-width="1"></path>
</svg>