<svg xmlns="http://www.w3.org/2000/svg" fill="none" viewBox="-0.5 -0.5 24 24"
    id="Shoppingmode--Streamline-Sharp-Material-Icons" height="24" width="24">
    <desc>Shoppingmode Streamline Icon: https://streamlinehq.com</desc>
    <path fill="#fbcd0e"
        d="M11.284375 21.70625 1.9166666666666667 12.290625 12.290625 1.9166666666666667h9.391666666666667v9.34375l-10.397916666666667 10.445833333333335Zm-0.04791666666666667 -2.0125 9.008333333333335 -9.05625V3.354166666666667H12.889583333333333L3.905208333333334 12.338541666666668l7.331250000000001 7.355208333333334ZM17.729166666666668 7.091666666666668c0.33541666666666664 0 0.62689375 -0.12376875 0.8744791666666667 -0.3713541666666667 0.2475854166666667 -0.2475854166666667 0.3713541666666667 -0.5390625 0.3713541666666667 -0.8744791666666667s-0.12376875 -0.62689375 -0.3713541666666667 -0.8744791666666667C18.35606041666667 4.723783125000001 18.064583333333335 4.6 17.729166666666668 4.6s-0.62689375 0.12378312500000001 -0.8744791666666667 0.3713541666666667c-0.2475854166666667 0.2475854166666667 -0.3713541666666667 0.5390625 -0.3713541666666667 0.8744791666666667s0.12376875 0.62689375 0.3713541666666667 0.8744791666666667c0.2475854166666667 0.2475854166666667 0.5390625 0.3713541666666667 0.8744791666666667 0.3713541666666667Z"
        stroke-width="1"></path>
</svg>