<svg id="Rotate-360--Streamline-Carbon" xmlns="http://www.w3.org/2000/svg" viewBox="-0.5 -0.5 16 16" height="16" width="16"><desc>Rotate 360 Streamline Icon: https://streamlinehq.com</desc><defs></defs><title>rotate--360</title><path d="m12.1640625 3.5859375 0.0022031250000000002 -0.0018281249999999999c-0.04303125 -0.05128125 -0.09234375 -0.096609375 -0.13710937499999998 -0.146484375 -0.08629687500000001 -0.09614062500000001 -0.172125 -0.19218749999999998 -0.264140625 -0.28265625 -0.06478125 -0.06365625 -0.13387500000000002 -0.12248437499999999 -0.2015625 -0.183140625 -0.085828125 -0.07710937500000001 -0.171421875 -0.15403125 -0.26160937500000003 -0.226125 -0.074625 -0.05995312500000001 -0.15206250000000002 -0.11559375000000001 -0.229453125 -0.17189062500000002 -0.090046875 -0.065625 -0.180703125 -0.12975 -0.27440625 -0.19040625 -0.081703125 -0.052875 -0.165140625 -0.1025625 -0.24946875000000002 -0.15178124999999998q-0.144421875 -0.08371875000000001 -0.293109375 -0.15975c-0.08653124999999999 -0.04415625 -0.1734375 -0.08653124999999999 -0.2625 -0.12656250000000002 -0.10425 -0.046875 -0.21046875 -0.08971875 -0.3178125 -0.130921875 -0.08878125 -0.033890625 -0.177046875 -0.06820312499999999 -0.267796875 -0.09796875 -0.11545312499999999 -0.038203125000000004 -0.2334375 -0.07003125 -0.351890625 -0.101390625 -0.086625 -0.023109374999999998 -0.17221875 -0.048046874999999996 -0.26034375 -0.067078125 -0.1359375 -0.02971875 -0.274921875 -0.05034375 -0.414046875 -0.0706875 -0.07453125000000001 -0.01078125 -0.147421875 -0.025875 -0.22284375 -0.034125A6.062390625 6.062390625 0 0 0 2.8125 3.610828125V1.875H1.875v3.75h3.75v-0.9375H3.192890625A5.13796875 5.13796875 0 0 1 7.5 2.34375a5.20846875 5.20846875 0 0 1 0.55734375 0.031359375c0.06384374999999999 0.00684375 0.12562500000000001 0.0196875 0.18871875000000002 0.028828125 0.117609375 0.01715625 0.23503124999999997 0.03478125 0.3500625 0.059765625 0.074625 0.01621875 0.147375 0.0375 0.22087500000000002 0.056953125 0.09989062500000001 0.02634375 0.19959375000000001 0.05334375 0.296953125 0.08540625 0.077015625 0.025640625 0.15234375 0.054703125 0.227765625 0.08353125 0.09028125 0.03478125 0.179765625 0.070734375 0.26742187500000003 0.110109375 0.075515625 0.034078125 0.14967187499999998 0.0703125 0.223265625 0.1078125q0.125484375 0.063890625 0.24665625 0.134390625c0.07171875 0.041859375000000004 0.14278125 0.08437499999999999 0.212390625 0.12928125 0.078703125 0.051046875 0.1550625 0.10509375 0.23071875 0.15998437499999998 0.06590625 0.04809375 0.132046875 0.095484375 0.19546875 0.146484375 0.07575 0.060656249999999995 0.1479375 0.1254375 0.2203125 0.190453125 0.057421875 0.0515625 0.11615625 0.101625 0.17118750000000002 0.155625 0.07818750000000001 0.07668749999999999 0.15107812499999998 0.15839062499999998 0.22429687499999998 0.239859375A5.152875000000001 5.152875000000001 0 1 1 2.34375 7.5H1.40625a6.09375 6.09375 0 1 0 10.7578125 -3.9140625Z" fill="#000000" stroke-width="1"></path><path id="_Transparent_Rectangle_" d="M0 0h15v15H0Z" fill="none" stroke-width="1"></path></svg>