<svg viewBox="-0.5 -0.5 16 16" fill="none" xmlns="http://www.w3.org/2000/svg" id="Community--Streamline-Iconoir" height="16" width="16"><desc>Community Streamline Icon: https://streamlinehq.com</desc><path d="M4.375 11.25v-0.625c0 -1.725875 1.3991124999999998 -3.125 3.125 -3.125v0c1.725875 0 3.125 1.399125 3.125 3.125v0.625" stroke="#000000" stroke-linecap="round" stroke-linejoin="round" stroke-width="1"></path><path d="M0.625 11.25v-0.625c0 -1.0355625 0.83946875 -1.875 1.875 -1.875v0" stroke="#000000" stroke-linecap="round" stroke-linejoin="round" stroke-width="1"></path><path d="M14.375 11.25v-0.625c0 -1.0355625 -0.8394375 -1.875 -1.875 -1.875v0" stroke="#000000" stroke-linecap="round" stroke-linejoin="round" stroke-width="1"></path><path d="M7.5 7.5c1.0355625 0 1.875 -0.8394375 1.875 -1.875 0 -1.03553125 -0.8394375 -1.875 -1.875 -1.875S5.625 4.58946875 5.625 5.625c0 1.0355625 0.8394375 1.875 1.875 1.875Z" stroke="#000000" stroke-linecap="round" stroke-linejoin="round" stroke-width="1"></path><path d="M2.5 8.75c0.69035625 0 1.25 -0.559625 1.25 -1.25s-0.55964375 -1.25 -1.25 -1.25 -1.25 0.559625 -1.25 1.25 0.55964375 1.25 1.25 1.25Z" stroke="#000000" stroke-linecap="round" stroke-linejoin="round" stroke-width="1"></path><path d="M12.5 8.75c0.690375 0 1.25 -0.559625 1.25 -1.25s-0.559625 -1.25 -1.25 -1.25 -1.25 0.559625 -1.25 1.25 0.559625 1.25 1.25 1.25Z" stroke="#000000" stroke-linecap="round" stroke-linejoin="round" stroke-width="1"></path></svg>